<?xml version="1.0" standalone="no"?>
<!DOCTYPE svg PUBLIC "-//W3C//DTD SVG 20010904//EN"
 "http://www.w3.org/TR/2001/REC-SVG-20010904/DTD/svg10.dtd">
<svg version="1.0" xmlns="http://www.w3.org/2000/svg"
 width="1350.000000pt" height="1350.000000pt" viewBox="0 0 1350.000000 1350.000000"
 preserveAspectRatio="xMidYMid meet">

<g transform="translate(0.000000,1350.000000) scale(0.100000,-0.100000)"
fill="#000000" stroke="none">
<path d="M4640 12765 l0 -105 2005 0 2005 0 0 -105 0 -105 105 0 105 0 0 -530
0 -530 -315 0 -315 0 0 -1160 0 -1160 -1795 0 -1795 0 0 1690 0 1690 -105 0
-105 0 0 -1375 0 -1375 -105 0 -105 0 0 -105 0 -105 -105 0 -105 0 0 210 0
210 -425 0 -425 0 0 -315 0 -315 110 0 110 0 0 -210 0 -210 -110 0 -110 0 0
-425 0 -425 215 0 215 0 0 -105 0 -105 -215 0 -215 0 0 -630 0 -630 110 0 110
0 0 -105 0 -105 210 0 210 0 0 630 0 630 845 0 845 0 0 105 0 105 105 0 105 0
0 -105 0 -105 105 0 105 0 0 -210 0 -210 105 0 105 0 0 420 0 420 -105 0 -105
0 0 320 0 320 630 0 630 0 0 -210 0 -210 -105 0 -105 0 0 -215 0 -215 -105 0
-105 0 0 -105 0 -105 530 0 530 0 0 -315 0 -315 -105 0 -105 0 0 -105 0 -105
105 0 105 0 0 -740 0 -740 210 0 210 0 0 -105 0 -105 -315 0 -315 0 0 105 0
105 -425 0 -425 0 0 -210 0 -210 -210 0 -210 0 0 105 0 105 105 0 105 0 0 105
0 105 -210 0 -210 0 0 105 0 105 -105 0 -105 0 0 105 0 105 105 0 105 0 0 215
0 215 -105 0 -105 0 0 105 0 105 -210 0 -210 0 0 -530 0 -530 -635 0 -635 0 0
-105 0 -105 -315 0 -315 0 0 210 0 210 105 0 105 0 0 210 0 210 -740 0 -740 0
0 -420 0 -420 -420 0 -420 0 0 -1370 0 -1370 105 0 105 0 0 -105 0 -105 735 0
735 0 0 -105 0 -105 -840 0 -840 0 0 -530 0 -530 105 0 105 0 0 -105 0 -105
1475 0 1475 0 0 1055 0 1055 210 0 210 0 0 -1055 0 -1055 635 0 635 0 0 315 0
315 635 0 635 0 0 -315 0 -315 630 0 630 0 0 1370 0 1370 210 0 210 0 0 -1370
0 -1370 740 0 740 0 0 740 0 740 740 0 740 0 0 1370 0 1370 105 0 105 0 0 420
0 420 -105 0 -105 0 0 -210 0 -210 -530 0 -530 0 0 -105 0 -105 -315 0 -315 0
0 105 0 105 -740 0 -740 0 0 -105 0 -105 -210 0 -210 0 0 105 0 105 -210 0
-210 0 0 315 0 315 525 0 525 0 0 215 0 215 -630 0 -630 0 0 105 0 105 105 0
105 0 0 315 0 315 210 0 210 0 0 -210 0 -210 105 0 105 0 0 420 0 420 530 0
530 0 0 -210 0 -210 315 0 315 0 0 420 0 420 525 0 525 0 0 -105 0 -105 -105
0 -105 0 0 -105 0 -105 425 0 425 0 0 -630 0 -630 105 0 105 0 0 210 0 210
210 0 210 0 0 525 0 525 -210 0 -210 0 0 215 0 215 -425 0 -425 0 0 315 0 315
-105 0 -105 0 0 105 0 105 -105 0 -105 0 0 105 0 105 210 0 210 0 0 210 0 210
-105 0 -105 0 0 105 0 105 -315 0 -315 0 0 -210 0 -210 -525 0 -525 0 0 -105
0 -105 -320 0 -320 0 0 1690 0 1690 -105 0 -105 0 0 105 0 105 -2110 0 -2110
0 0 -105z m-630 -3380 l0 -105 105 0 105 0 0 -210 0 -210 -105 0 -105 0 0 210
0 210 -315 0 -315 0 0 105 0 105 315 0 315 0 0 -105z m7170 0 l0 -105 -210 0
-210 0 0 105 0 105 210 0 210 0 0 -105z m-630 -315 l0 -210 -105 0 -105 0 0
105 0 105 -105 0 -105 0 0 105 0 105 210 0 210 0 0 -210z m-5060 -845 l0 -425
-215 0 -215 0 0 215 0 215 -105 0 -105 0 0 105 0 105 210 0 210 0 0 105 0 105
110 0 110 0 0 -425z m2740 -105 l0 -530 -210 0 -210 0 0 210 0 210 -105 0
-105 0 0 320 0 320 315 0 315 0 0 -530z m-3590 215 l0 -105 -210 0 -210 0 0
105 0 105 210 0 210 0 0 -105z m2960 -3695 l0 -210 -215 0 -215 0 0 210 0 210
215 0 215 0 0 -210z"/>
<path d="M1270 6855 l0 -105 -215 0 -215 0 0 -425 0 -425 215 0 215 0 0 -105
0 -105 105 0 105 0 0 635 0 635 -105 0 -105 0 0 -105z"/>
<path d="M9920 6540 l0 -210 105 0 105 0 0 -215 0 -215 210 0 210 0 0 425 0
425 -315 0 -315 0 0 -210z"/>
</g>
</svg>
